<svg width="14" height="14" viewBox="0 0 14 14" fill="none" xmlns="http://www.w3.org/2000/svg">
    <circle cx="7" cy="7" r="7" fill="#C7000D" />
    <path fill-rule="evenodd" clip-rule="evenodd"
        d="M10.7608 4.22951C10.4457 3.91975 9.93918 3.92407 9.62942 4.23927L6.70158 7.21807L6.0603 7.85943L4.36574 6.16479C4.05326 5.85239 3.5467 5.85239 3.2343 6.16479C2.9219 6.47727 2.9219 6.98383 3.2343 7.29623L5.49454 9.55647C5.63126 9.69319 5.8051 9.77007 5.98358 9.78711C6.0091 9.78959 6.0347 9.79079 6.0603 9.79079C6.08582 9.79079 6.11142 9.78959 6.13694 9.78711C6.31542 9.77007 6.48926 9.69319 6.62598 9.55647L7.83782 8.34455L10.7705 5.36087C11.0803 5.04575 11.0759 4.53927 10.7608 4.22951Z"
        fill="white" />
</svg>